<?xml version="1.0" standalone="no"?>
<!DOCTYPE svg PUBLIC "-//W3C//DTD SVG 20010904//EN"
 "http://www.w3.org/TR/2001/REC-SVG-20010904/DTD/svg10.dtd">
<svg version="1.0" xmlns="http://www.w3.org/2000/svg"
 width="810.000000pt" height="810.000000pt" viewBox="0 0 810.000000 810.000000"
 preserveAspectRatio="xMidYMid meet">
<metadata>
Created by potrace 1.14, written by Peter Selinger 2001-2017
</metadata>
<g transform="translate(0.000000,810.000000) scale(0.100000,-0.100000)"
fill="#000000" stroke="none">
<path d="M3316 8077 c-23 -23 -24 -29 -24 -186 0 -146 -4 -183 -16 -170 -2 2
-7 33 -11 69 -11 104 -12 113 -25 158 -23 74 -5 71 -350 71 -629 2 -783 -11
-796 -64 -6 -24 1 -534 12 -916 l5 -177 -73 6 c-40 3 -230 6 -423 6 -357 1
-376 -1 -510 -41 -65 -20 -89 -51 -89 -118 0 -49 13 -235 19 -265 2 -8 6 -53
10 -100 3 -47 8 -96 10 -110 2 -14 7 -59 10 -100 3 -41 8 -86 10 -100 2 -14 7
-59 10 -100 3 -41 8 -93 10 -115 3 -22 7 -87 11 -145 8 -145 11 -204 18 -285
3 -38 8 -108 11 -155 3 -47 8 -101 10 -120 2 -19 7 -78 10 -130 4 -52 8 -111
10 -130 2 -19 7 -98 9 -175 3 -77 8 -174 11 -215 4 -41 8 -97 10 -125 2 -27 7
-95 11 -150 4 -55 7 -149 7 -210 -3 -375 -3 -640 1 -705 3 -41 8 -124 11 -185
8 -120 10 -161 21 -310 11 -167 12 -176 18 -310 3 -71 8 -238 11 -370 3 -132
7 -328 10 -435 5 -191 9 -400 20 -932 4 -147 8 -277 10 -289 12 -63 82 -131
167 -160 54 -20 91 -20 642 -6 l79 2 14 -78 c21 -122 47 -157 143 -190 37 -13
91 -15 310 -12 236 3 311 6 455 19 70 6 128 29 168 67 37 36 40 37 70 24 36
-14 170 -41 262 -51 33 -3 83 -10 110 -14 49 -8 301 -5 340 3 11 3 47 8 80 12
33 3 83 11 110 16 28 6 59 12 70 13 11 2 37 9 58 17 37 13 52 38 49 82 -1 22
-1 22 94 -7 75 -22 107 -28 234 -42 30 -3 69 -8 85 -10 175 -20 494 -25 645
-11 47 5 108 10 135 13 96 9 276 31 330 40 17 3 35 7 41 8 23 4 42 27 49 59 4
17 9 39 11 47 2 8 7 42 10 75 4 33 7 61 8 62 1 1 180 3 399 5 l399 3 23 27
c22 26 23 35 25 195 1 92 3 229 5 303 2 74 6 299 10 500 3 201 9 383 12 405 4
22 5 56 4 75 -11 173 7 849 24 905 10 36 10 50 -5 98 -10 30 -16 66 -15 79 1
13 6 84 9 158 4 74 9 160 11 190 2 30 6 111 9 180 7 127 14 202 22 232 13 44
12 63 -3 97 -8 20 -15 52 -15 71 0 38 12 605 17 815 2 72 6 290 10 485 3 195
11 371 16 390 5 20 7 47 4 60 -7 39 -8 78 -1 205 4 66 9 156 11 200 2 44 7
132 10 195 26 493 28 550 15 565 -33 40 -152 50 -662 56 -92 1 -172 5 -177 8
-5 4 -11 75 -13 159 -2 121 -6 156 -18 166 -30 26 -52 28 -425 41 -88 3 -218
7 -290 10 -71 2 -227 7 -345 11 -118 3 -260 7 -315 9 -55 2 -147 3 -204 4
l-104 1 7 193 c19 540 19 532 3 546 -22 18 -68 20 -660 26 l-537 6 -24 -24z"/>
</g>
</svg>
